
Movie Info
Plot: In Roman-ruled Britain, a young Roman soldier
endeavors to honor his father's memory by finding his lost legion's golden emblem.
IMDB: http://www.imdb.com/title/tt1034389/
IMDB Rating: 6.3
Trailer:



General Info
Size: 1.19GB
Format: AVI
Runtime: 1:53:34



Sources
Video - The Eagle (2011) PPVRIP IFLIX
Audio - The Eagle (2011) PPVRIP IFLIX



Video Info
ID : 0
Format : MPEG-4 Visual
Format profile : Advanced Simple@L5
Format settings, BVOP : 2
Format settings, QPel : No
Format settings, GMC : No warppoints
Format settings, Matrix : Default (H.263)
Muxing mode : Packed bitstream
Codec ID : XVID
Codec ID/Hint : XviD
Duration : 1h 53mn
Bit rate : 1 369 Kbps
Width : 704 pixels
Height : 368 pixels
Display aspect ratio : 1.913
Frame rate : 29.970 fps
Color space : YUV
Chroma subsampling : 4:2:0
Bit depth : 8 bits
Scan type : Progressive
Compression mode : Lossy
Bits/(Pixel*Frame) : 0.176
Stream size : 1.09 GiB (91%)
Writing library : XviD 58



Audio Info
ID : 1
Format : MPEG Audio
Format version : Version 1
Format profile : Layer 3
Mode : Joint stereo
Mode extension : MS Stereo
Codec ID : 55
Codec ID/Hint : MP3
Duration : 1h 53mn
Bit rate mode : Constant
Bit rate : 128 Kbps
Channel(s) : 2 channels
Sampling rate : 44.1 KHz
Compression mode : Lossy
Stream size : 104 MiB (8%)
Alignment : Split accross interleaves
Interleave, duration : 33 ms (1.00 video frame)
Interleave, preload duration : 500 ms


Encoders Notes
I made a small avs script to crop, resize & smoothen it.
I then dropped that into vdubmod.
There i lowered the brightness,
increased the contrast, saturation & gamma.
Then i changed the colors with a rgb eq & sharpened it.
Finaly i re-encoded the audio & muxed it to my encode.
Its a bit blurry but thats because i used a smoother
to remove the noise as normal de-noiser's werent working.
Download the sample first to check that your happy with the quality.
Next up is the rite ppvrip.
Enjoy the film...


I am looking for;
Cammers, Cams, Screeners (any type), Cam audio, Line audio,
Un-released R6's R5's R4's R2's R1's,
A 25GB+ FTP server, A Windows Server
& a syncer.
If you can provide any of these please
contact me at illusion@hushmail.me

 
http://leetleech.org/images/40844424948677348901.jpg
 
http://leetleech.org/images/56800774742877061277.jpg
 
http://leetleech.org/images/63333239527183380699.jpg
 
http://leetleech.org/images/28952753930154792703.jpg
 
http://leetleech.org/images/16937455295471251460.jpg